<svg width="386" height="102" viewBox="0 0 386 102" fill="none" xmlns="http://www.w3.org/2000/svg">
<path d="M89.5742 74.7988V53.0979H94.1914V74.7988H89.5742Z" fill="#2F9E41"/>
<path d="M119.124 74.7988H113.233L103.723 58.3839H103.589C103.777 61.282 103.873 63.3525 103.873 64.5873V74.7988H99.7319V53.0979H105.577L115.072 69.3523H115.177C115.028 66.5322 114.953 64.5379 114.953 63.3695V53.0979H119.124V74.7988Z" fill="#2F9E41"/>
<path d="M137.132 68.5181C137.132 70.4646 136.442 71.9979 135.06 73.1186C133.68 74.2384 131.759 74.7988 129.297 74.7988C127.029 74.7988 125.025 74.3676 123.28 73.5026V69.2557C124.713 69.9043 125.927 70.3622 126.922 70.6268C127.915 70.8932 128.822 71.025 129.646 71.025C130.635 71.025 131.392 70.8335 131.92 70.4495C132.449 70.0664 132.714 69.4971 132.714 68.739C132.714 68.3176 132.596 67.9417 132.363 67.6111C132.131 67.2824 131.79 66.9652 131.339 66.6614C130.889 66.3567 129.971 65.8677 128.585 65.1995C127.286 64.5821 126.312 63.9852 125.664 63.4159C125.015 62.8449 124.496 62.182 124.108 61.4257C123.721 60.6684 123.526 59.7829 123.526 58.7699C123.526 56.8634 124.165 55.3632 125.437 54.2718C126.712 53.1814 128.474 52.6361 130.722 52.6361C131.827 52.6361 132.88 52.7689 133.884 53.0353C134.886 53.2999 135.936 53.6731 137.031 54.1551L135.577 57.7089C134.442 57.2367 133.505 56.908 132.764 56.7218C132.024 56.5338 131.293 56.442 130.576 56.442C129.725 56.442 129.069 56.6434 128.615 57.0461C128.158 57.4478 127.931 57.9753 127.931 58.6238C127.931 59.0256 128.023 59.3775 128.207 59.6786C128.391 59.978 128.684 60.2666 129.087 60.5482C129.488 60.827 130.44 61.3312 131.943 62.0591C133.928 63.023 135.29 63.9888 136.027 64.9572C136.764 65.9247 137.132 67.1113 137.132 68.5181Z" fill="#2F9E41"/>
<path d="M149.328 74.7988H144.79V56.9304H138.979V53.0979H155.139V56.9304H149.328V74.7988Z" fill="#2F9E41"/>
<path d="M158.833 74.7988V53.0979H162.988V74.7988H158.833Z" fill="#2F9E41"/>
<path d="M177.031 74.7988H172.493V56.9304H166.682V53.0979H182.842V56.9304H177.031V74.7988Z" fill="#2F9E41"/>
<path d="M203.62 53.0979V66.9512C203.62 68.5321 203.267 69.9183 202.562 71.1099C201.847 72.3006 200.833 73.2127 199.493 73.8487C198.162 74.483 196.584 74.7988 194.759 74.7988C192.008 74.7988 189.874 74.0956 188.358 72.6846C186.832 71.2745 186.074 69.3442 186.074 66.8928V53.0979H190.588V66.2046C190.588 67.8553 190.923 69.0646 191.585 69.8369C192.246 70.6074 193.348 70.9949 194.873 70.9949C196.355 70.9949 197.43 70.6039 198.1 69.8281C198.77 69.054 199.097 67.8359 199.097 66.1754V53.0979H203.62Z" fill="#2F9E41"/>
<path d="M217.491 74.7988H212.825V56.9304H206.852V53.0979H223.474V56.9304H217.491V74.7988Z" fill="#2F9E41"/>
<path d="M230.518 63.7104C230.518 66.1162 230.976 67.9285 231.882 69.1465C232.789 70.3627 234.136 70.9731 235.94 70.9731C239.549 70.9731 241.354 68.5522 241.354 63.7104C241.354 58.8606 239.558 56.4352 235.967 56.4352C234.162 56.4352 232.807 57.0464 231.891 58.2698C230.976 59.4914 230.518 61.3055 230.518 63.7104ZM246.098 63.7104C246.098 67.2746 245.218 70.0131 243.466 71.9286C241.715 73.8433 239.206 74.7988 235.94 74.7988C232.666 74.7988 230.157 73.8433 228.405 71.9286C226.654 70.0131 225.782 67.2665 225.782 63.681C225.782 60.0982 226.654 57.3614 228.414 55.4708C230.166 53.5801 232.683 52.6361 235.967 52.6361C239.241 52.6361 241.75 53.5881 243.493 55.493C245.227 57.3979 246.098 60.1364 246.098 63.7104Z" fill="#2F9E41"/>
<path d="M263.103 74.7988H258.564V53.0979H271.031V56.8685H263.103V62.4639H270.475V66.221H263.103V74.7988Z" fill="#2F9E41"/>
<path d="M287.653 74.7988H275.648V53.0979H287.653V56.8685H280.068V61.6344H287.12V65.405H280.068V70.9986H287.653V74.7988Z" fill="#2F9E41"/>
<path d="M305.498 63.86C305.498 59.1999 303.44 56.8685 299.323 56.8685H296.871V70.9986H298.848C303.279 70.9986 305.498 68.6206 305.498 63.86ZM310.277 63.7408C310.277 67.3141 309.257 70.049 307.226 71.95C305.194 73.8501 302.258 74.7988 298.419 74.7988H292.27V53.0979H299.09C302.625 53.0979 305.382 54.0349 307.333 55.9054C309.293 57.7741 310.277 60.3871 310.277 63.7408Z" fill="#2F9E41"/>
<path d="M327.361 74.7988H314.895V53.0979H327.361V56.8685H319.485V61.6344H326.817V65.405H319.485V70.9986H327.361V74.7988Z" fill="#2F9E41"/>
<path d="M336.173 62.732H337.676C339.144 62.732 340.231 62.4908 340.937 62.0057C341.635 61.5206 341.988 60.7584 341.988 59.72C341.988 58.6897 341.626 57.958 340.91 57.5222C340.194 57.0873 339.089 56.8685 337.586 56.8685H336.173V62.732ZM336.173 66.473V74.7988H331.517V53.0979H337.912C340.901 53.0979 343.102 53.6359 344.542 54.7092C345.964 55.7826 346.689 57.4137 346.689 59.6007C346.689 60.8776 346.327 62.0119 345.62 63.0055C344.905 64.0017 343.899 64.7809 342.604 65.3432C345.901 70.223 348.057 73.3731 349.062 74.7988H343.89L338.655 66.473H336.173Z" fill="#2F9E41"/>
<path d="M362.284 65.8109C360.839 61.1499 360.032 58.5126 359.846 57.9018C359.668 57.2918 359.535 56.8086 359.455 56.4541C359.136 57.7151 358.205 60.8346 356.68 65.8109H362.284ZM364.927 74.7988L363.366 69.6547H355.536L353.975 74.7988H349.062L356.653 53.0979H362.222L369.84 74.7988H364.927Z" fill="#2F9E41"/>
<path d="M372.61 74.7988V53.0979H377.199V70.9986H386V74.7988H372.61Z" fill="#2F9E41"/>
<path d="M97.3029 92.1827H102.964V100.263C102.084 100.543 101.188 100.756 100.277 100.9C99.3652 101.044 98.3096 101.117 97.1096 101.117C94.5885 101.117 92.6251 100.369 91.2212 98.8709C89.8154 97.3751 89.1125 95.2775 89.1125 92.5807C89.1125 90.8543 89.4609 89.339 90.1557 88.04C90.8506 86.741 91.8518 85.7482 93.1569 85.0636C94.4629 84.3762 95.9934 84.0335 97.7475 84.0335C99.5247 84.0335 101.181 84.3611 102.715 85.0128L101.962 86.7169C100.459 86.0785 99.0124 85.7625 97.6227 85.7625C95.5943 85.7625 94.0113 86.3643 92.8728 87.5672C91.7334 88.7727 91.1641 90.4439 91.1641 92.5807C91.1641 94.8243 91.712 96.5249 92.8104 97.6832C93.9071 98.8424 95.5185 99.4238 97.645 99.4238C98.7986 99.4238 99.9265 99.2893 101.028 99.0249V93.9108H97.3029V92.1827Z" fill="#2F9E41"/>
<path d="M107.706 94.6415C107.706 96.2346 108.027 97.4488 108.669 98.2823C109.311 99.1185 110.255 99.5348 111.5 99.5348C112.745 99.5348 113.692 99.1185 114.337 98.2894C114.983 97.4568 115.306 96.2399 115.306 94.6415C115.306 93.0556 114.983 91.8503 114.337 91.0292C113.692 90.2055 112.737 89.7927 111.478 89.7927C110.232 89.7927 109.292 90.2001 108.658 91.0114C108.023 91.8226 107.706 93.0333 107.706 94.6415ZM117.277 94.6415C117.277 96.6741 116.763 98.2618 115.73 99.4038C114.698 100.544 113.273 101.117 111.454 101.117C110.332 101.117 109.333 100.854 108.463 100.33C107.592 99.8076 106.919 99.0552 106.446 98.0773C105.971 97.0984 105.734 95.9546 105.734 94.6415C105.734 92.608 106.246 91.0257 107.27 89.8899C108.295 88.7568 109.715 88.189 111.535 88.189C113.292 88.189 114.689 88.7684 115.724 89.93C116.76 91.0898 117.277 92.6624 117.277 94.6415Z" fill="#2F9E41"/>
<path d="M122.629 100.655H120.674V88.198H122.629V100.655ZM120.51 84.8201C120.51 84.3891 120.618 84.0721 120.838 83.8699C121.059 83.6722 121.333 83.5715 121.664 83.5715C121.978 83.5715 122.249 83.6722 122.476 83.877C122.705 84.0809 122.818 84.3953 122.818 84.8201C122.818 85.244 122.705 85.5628 122.476 85.7712C122.249 85.9787 121.978 86.0829 121.664 86.0829C121.333 86.0829 121.059 85.9787 120.838 85.7712C120.618 85.5628 120.51 85.244 120.51 84.8201Z" fill="#2F9E41"/>
<path d="M129.541 86.1691C129.91 85.6911 130.309 85.1093 130.736 84.4264C131.164 83.7436 131.502 83.1527 131.747 82.6483H134.082V82.8914C133.743 83.3949 133.238 84.0158 132.568 84.7496C131.898 85.488 131.316 86.0571 130.824 86.4604H129.541V86.1691ZM129.99 99.5239C131.185 99.5239 132.123 99.1952 132.806 98.5351C133.487 97.8787 133.828 96.9545 133.828 95.77V94.6173L131.91 94.7011C130.384 94.7548 129.285 94.9925 128.61 95.4158C127.936 95.8374 127.599 96.4938 127.599 97.3861C127.599 98.0835 127.81 98.6134 128.229 98.9776C128.648 99.3427 129.236 99.5239 129.99 99.5239ZM134.325 100.882L133.943 99.0723H133.851C133.219 99.8689 132.59 100.41 131.961 100.692C131.333 100.975 130.55 101.117 129.61 101.117C128.354 101.117 127.369 100.792 126.657 100.139C125.944 99.4884 125.588 98.5633 125.588 97.3633C125.588 94.7903 127.634 93.4401 131.724 93.3181L133.874 93.248V92.4568C133.874 91.458 133.661 90.7196 133.233 90.2434C132.806 89.7663 132.12 89.5278 131.181 89.5278C130.126 89.5278 128.932 89.8556 127.599 90.5047L127.01 89.0289C127.634 88.6892 128.318 88.4207 129.06 88.2267C129.804 88.0328 130.55 87.9363 131.297 87.9363C132.806 87.9363 133.925 88.2741 134.654 88.9469C135.382 89.6225 135.746 90.7014 135.746 92.19V100.882H134.325Z" fill="#2F9E41"/>
<path d="M147.751 97.4871C147.751 98.6478 147.3 99.5411 146.397 100.171C145.493 100.802 144.226 101.117 142.594 101.117C140.866 101.117 139.521 100.854 138.553 100.33V98.5783C139.18 98.8814 139.85 99.1203 140.567 99.2959C141.285 99.4697 141.976 99.5571 142.641 99.5571C143.67 99.5571 144.463 99.4002 145.018 99.0855C145.573 98.7699 145.85 98.2912 145.85 97.6449C145.85 97.1608 145.63 96.7454 145.191 96.3986C144.75 96.0536 143.893 95.6462 142.617 95.1764C141.405 94.7431 140.543 94.3669 140.033 94.0424C139.522 93.7206 139.14 93.3551 138.891 92.9459C138.642 92.5367 138.517 92.0455 138.517 91.4776C138.517 90.4614 138.949 89.6581 139.813 89.0715C140.676 88.4814 141.861 88.189 143.366 88.189C144.769 88.189 146.139 88.4609 147.478 89.0091L146.776 90.5452C145.471 90.029 144.285 89.7696 143.223 89.7696C142.289 89.7696 141.584 89.9113 141.109 90.1912C140.632 90.4729 140.395 90.858 140.395 91.3528C140.395 91.6853 140.484 91.9706 140.663 92.206C140.84 92.4413 141.128 92.6642 141.524 92.8764C141.919 93.0903 142.681 93.397 143.805 93.7991C145.351 94.3366 146.394 94.8804 146.937 95.4269C147.48 95.9716 147.751 96.6598 147.751 97.4871Z" fill="#2F9E41"/>
<path d="M48.4807 20.9159C48.4807 22.1002 47.4941 23.0859 46.3107 23.0859H28.9498C27.7664 23.0859 26.7798 22.1002 26.7798 20.9159V3.55765C26.7798 2.37336 27.7664 1.38498 28.9498 1.38498H46.3107C47.4941 1.38498 48.4807 2.37336 48.4807 3.55765V20.9159Z" fill="#2F9E41"/>
<path d="M74.7991 20.9159C74.7991 22.1002 73.8125 23.0859 72.6281 23.0859H55.2683C54.0839 23.0859 53.0981 22.1002 53.0981 20.9159V3.55765C53.0981 2.37336 54.0839 1.38498 55.2683 1.38498H72.6281C73.8125 1.38498 74.7991 2.37336 74.7991 3.55765V20.9159Z" fill="#2F9E41"/>
<path d="M74.7991 72.6287C74.7991 73.8113 73.8125 74.7988 72.6281 74.7988H55.2683C54.0839 74.7988 53.0981 73.8113 53.0981 72.6287V55.2663C53.0981 54.0819 54.0839 53.0979 55.2683 53.0979H72.6281C73.8125 53.0979 74.7991 54.0819 74.7991 55.2663V72.6287Z" fill="#2F9E41"/>
<path d="M22.6243 46.31C22.6243 47.4943 21.6368 48.481 20.4551 48.481H3.09423C1.91172 48.481 0.92334 47.4943 0.92334 46.31V28.95C0.92334 27.7675 1.91172 26.78 3.09423 26.78H20.4551C21.6368 26.78 22.6243 27.7675 22.6243 28.95V46.31Z" fill="#2F9E41"/>
<path d="M48.4807 46.31C48.4807 47.4943 47.4941 48.481 46.3107 48.481H28.9498C27.7664 48.481 26.7798 47.4943 26.7798 46.31V28.95C26.7798 27.7675 27.7664 26.78 28.9498 26.78H46.3107C47.4941 26.78 48.4807 27.7675 48.4807 28.95V46.31Z" fill="#2F9E41"/>
<path d="M22.6243 72.6287C22.6243 73.8113 21.6368 74.7988 20.4551 74.7988H3.09423C1.91172 74.7988 0.92334 73.8113 0.92334 72.6287V55.2663C0.92334 54.0819 1.91172 53.0979 3.09423 53.0979H20.4551C21.6368 53.0979 22.6243 54.0819 22.6243 55.2663V72.6287Z" fill="#2F9E41"/>
<path d="M48.4807 72.6287C48.4807 73.8113 47.4941 74.7988 46.3107 74.7988H28.9498C27.7664 74.7988 26.7798 73.8113 26.7798 72.6287V55.2663C26.7798 54.0819 27.7664 53.0979 28.9498 53.0979H46.3107C47.4941 53.0979 48.4807 54.0819 48.4807 55.2663V72.6287Z" fill="#2F9E41"/>
<path d="M22.6243 98.4869C22.6243 99.6695 21.6368 100.655 20.4551 100.655H3.09423C1.91172 100.655 0.92334 99.6695 0.92334 98.4869V81.1236C0.92334 79.9401 1.91172 78.9543 3.09423 78.9543H20.4551C21.6368 78.9543 22.6243 79.9401 22.6243 81.1236V98.4869Z" fill="#2F9E41"/>
<path d="M48.4807 98.4869C48.4807 99.6695 47.4941 100.655 46.3107 100.655H28.9498C27.7664 100.655 26.7798 99.6695 26.7798 98.4869V81.1236C26.7798 79.9401 27.7664 78.9543 28.9498 78.9543H46.3107C47.4941 78.9543 48.4807 79.9401 48.4807 81.1236V98.4869Z" fill="#2F9E41"/>
<path d="M24.0096 11.7739C24.0096 18.2495 18.6091 23.5479 12.0048 23.5479C5.40411 23.5479 0 18.2495 0 11.7739C0 5.29929 5.40411 3.8147e-06 12.0048 3.8147e-06C18.6091 3.8147e-06 24.0096 5.29929 24.0096 11.7739Z" fill="#2F9E41"/>
</svg>
